<svg width="135" height="32" viewBox="0 0 135 32" fill="none" xmlns="http://www.w3.org/2000/svg">
<g clip-path="url(#clip0_1_8)">
<path d="M103.936 13.0841C103.611 10.7435 102.675 9.09298 101.129 8.10418C99.867 7.33976 98.411 6.95652 96.9364 7.00053C96.3404 7.00282 95.7452 7.04726 95.1555 7.13351C92.7404 7.49298 90.9452 8.42062 89.7448 9.97049C88.789 11.1765 88.2748 12.6737 88.2879 14.213C88.2879 14.597 88.3142 14.9799 88.366 15.36L89.0144 20.0124C89.3245 22.2596 90.1974 23.9282 91.6362 25.0464C92.7024 25.8756 94.1273 26.2916 95.9104 26.294C96.5578 26.2914 97.2042 26.2433 97.8448 26.15C100.046 25.8361 101.756 25.0667 102.974 23.8418C103.46 23.3785 103.846 22.8204 104.108 22.2021C104.37 21.5837 104.503 20.9181 104.499 20.2464C104.498 19.9673 104.477 19.6886 104.438 19.4123C104.431 19.3198 104.389 19.2334 104.321 19.1712C104.234 19.1142 104.132 19.0865 104.029 19.0923C103.975 19.0872 103.921 19.0872 103.868 19.0923L100.185 19.61C100.044 19.6318 99.9124 19.692 99.8037 19.784C99.6951 19.8759 99.6138 19.9961 99.5689 20.1312C99.1699 21.0517 98.3646 21.5982 97.2 21.76C96.9796 21.7939 96.7569 21.8108 96.5339 21.8105C95.9758 21.8298 95.4252 21.6779 94.9558 21.3753C94.6828 21.1978 94.452 20.9625 94.2797 20.6861C94.1074 20.4096 93.9978 20.0987 93.9586 19.7753L93.9159 19.4837C93.9109 19.3965 93.9109 19.309 93.9159 19.2217C93.9052 18.9904 93.9786 18.7631 94.1224 18.5817C94.2832 18.4135 94.4998 18.3098 94.7316 18.2901L102.586 17.1936C102.84 17.166 103.085 17.084 103.304 16.9531C103.524 16.8223 103.713 16.6456 103.858 16.4352C104.094 16.0971 104.218 15.6935 104.214 15.2811C104.212 15.1607 104.204 15.0406 104.189 14.9212L103.936 13.0841ZM98.7887 14.6087C98.6211 14.7832 98.3956 14.8905 98.1546 14.9106L94.2932 15.4606C94.2306 15.4658 94.1676 15.4658 94.1049 15.4606C93.9967 15.4652 93.8886 15.4475 93.7874 15.4085C93.6863 15.3696 93.5942 15.3102 93.517 15.2341C93.3615 15.0506 93.2668 14.8232 93.2463 14.5835C93.2292 14.4643 93.2209 14.344 93.2214 14.2236C93.2291 13.6227 93.4457 13.0431 93.8339 12.5845C94.319 11.9837 95.0196 11.5966 95.786 11.5058C95.9736 11.4805 96.1626 11.4674 96.3523 11.466C96.9079 11.456 97.4541 11.6098 97.923 11.9083C98.2235 12.1045 98.4757 12.3662 98.6607 12.6738C98.8458 12.9815 98.9589 13.327 98.9916 13.6846C99.0058 13.7735 99.0129 13.8638 99.0129 13.9541C99.0195 14.1921 98.9398 14.4245 98.7887 14.6084V14.6087ZM67.9665 12.7317C67.9665 10.6677 67.2826 9.13636 65.9219 8.11876C64.5613 7.10116 62.499 6.57245 59.7386 6.57245C58.4131 6.57671 57.0943 6.76551 55.82 7.13351C54.7158 7.39646 53.7007 7.94727 52.8781 8.72996C52.81 8.81913 52.7794 8.93141 52.7928 9.04285C52.7964 9.12107 52.818 9.19751 52.8568 9.26578L54.3453 12.2713C54.4057 12.3801 54.5176 12.4494 54.6412 12.4548C54.7574 12.4523 54.8708 12.4174 54.9688 12.3541C55.565 11.9467 56.23 11.6508 56.9316 11.4805C57.6894 11.2555 58.4743 11.1345 59.2646 11.1211C60.1572 11.0889 61.0493 11.1981 61.9078 11.4446C62.2025 11.5358 62.4615 11.7168 62.6485 11.9623C62.8217 12.2172 62.9091 12.5208 62.8979 12.8288C62.8939 13.0495 62.8289 13.2648 62.71 13.4508C62.5912 13.6367 62.4232 13.7861 62.2247 13.8823C61.8737 14.0651 61.5017 14.2027 61.117 14.2923C60.5635 14.4505 59.8238 14.6276 58.8977 14.8242L56.9601 15.2341C56.3521 15.3809 55.7629 15.5968 55.204 15.8777C54.6116 16.1524 54.0715 16.5284 53.6081 16.9888C53.1602 17.4858 52.8119 18.0644 52.5821 18.693C52.286 19.4896 52.1422 20.3349 52.1583 21.1847C52.1276 22.2703 52.4852 23.3312 53.1666 24.1764C53.7731 24.9482 54.5785 25.5398 55.496 25.8876C56.4277 26.2141 57.4086 26.3771 58.3957 26.3694C60.4971 26.3694 62.1284 25.9342 63.3004 25.0716C63.4659 24.9402 63.6642 24.8568 63.8738 24.8306C64.0071 24.827 64.136 24.8789 64.2302 24.9742C64.3204 25.0866 64.3652 25.2292 64.3545 25.3735C64.3438 25.4848 64.3843 25.5954 64.4653 25.6722C64.5684 25.7472 64.6945 25.7828 64.8213 25.7724H67.4325C67.5732 25.7952 67.716 25.7483 67.8169 25.6466C67.8667 25.5962 67.9039 25.5348 67.9255 25.4673C67.9472 25.3999 67.9527 25.3283 67.9416 25.2583L67.9665 12.7317ZM62.8837 19.0564C62.8837 20.2859 62.5629 21.1666 61.8968 21.6736C61.2434 22.1678 60.4434 22.4286 59.6245 22.4142C59.0605 22.4225 58.5099 22.2415 58.0607 21.9001C57.8341 21.7288 57.653 21.5045 57.5332 21.2469C57.4134 20.9893 57.3584 20.7062 57.3732 20.4224C57.3642 20.0758 57.4298 19.7313 57.5654 19.4123C57.6972 19.1314 57.9111 18.8978 58.1783 18.7435C58.4034 18.6095 58.6422 18.4998 58.8906 18.4164L59.7098 18.1646L62.2034 17.5637H62.2211C62.3126 17.5579 62.4042 17.5719 62.4897 17.6049C62.5752 17.6378 62.6525 17.6889 62.7164 17.7547C62.8347 17.9108 62.8929 18.1049 62.8798 18.3012L62.8837 19.0564ZM121.073 18.9842C121.078 18.9361 121.07 18.8875 121.052 18.8429C121.033 18.7983 121.003 18.7591 120.966 18.7289C120.859 18.6631 120.735 18.6317 120.609 18.6389H117.154C117.024 18.6416 116.897 18.6798 116.787 18.7496C116.677 18.8194 116.589 18.918 116.531 19.0347C116.047 19.8258 115.238 20.2247 114.152 20.2212C113.423 20.2683 112.704 20.037 112.139 19.574C111.912 19.375 111.73 19.1288 111.607 18.8525C111.484 18.5763 111.422 18.2765 111.427 17.974V17.7042C111.408 17.4381 111.488 17.1744 111.651 16.9636C111.736 16.8743 111.84 16.8048 111.955 16.7601C112.07 16.7154 112.194 16.6965 112.317 16.7047H119.684C119.92 16.7139 120.155 16.6717 120.373 16.5811C120.592 16.4905 120.788 16.3536 120.948 16.1799C121.281 15.8157 121.459 15.3357 121.443 14.8423V13.12C121.443 10.9376 120.791 9.30489 119.502 8.20125C118.212 7.0976 116.431 6.53653 114.158 6.53653C111.886 6.53653 110.13 7.19076 108.837 8.4352C108.201 9.0487 107.699 9.78824 107.364 10.6066C107.029 11.425 106.869 12.3043 106.892 13.1883V17.5353C106.892 19.6313 107.483 21.2747 108.673 22.4789C109.863 23.6836 111.676 24.277 114.201 24.277C116.26 24.277 117.923 23.7973 119.188 22.8388C119.793 22.3988 120.28 21.8175 120.609 21.1458C120.937 20.474 121.096 19.7317 121.073 18.9842ZM112.253 11.3547C112.772 10.859 113.466 10.5888 114.184 10.603C114.879 10.5764 115.56 10.8067 116.096 11.2501C116.345 11.4706 116.541 11.7439 116.671 12.05C116.8 12.3561 116.859 12.6873 116.845 13.0194C116.864 13.2956 116.782 13.5693 116.613 13.7888C116.432 13.9744 116.18 14.0715 115.922 14.0548H112.314C112.076 14.0715 111.842 13.9836 111.672 13.814C111.515 13.6183 111.438 13.3704 111.455 13.12C111.456 12.786 111.527 12.4559 111.665 12.1516C111.802 11.8473 112.003 11.5757 112.253 11.3547ZM134.22 10.3765C134.33 10.3836 134.438 10.3477 134.523 10.2759C134.6 10.1845 134.643 10.0686 134.644 9.9488L134.954 6.11236V6.02951C134.962 5.9707 134.957 5.91082 134.939 5.8542C134.921 5.79757 134.891 5.74561 134.851 5.70205C134.811 5.65865 134.761 5.62483 134.706 5.60311C134.652 5.58138 134.592 5.5723 134.534 5.57653C134.198 5.54791 133.862 5.53356 133.525 5.53351C131.92 5.53236 130.331 5.86281 128.859 6.50418C128.753 6.57671 128.63 6.62116 128.503 6.6336H128.482C128.361 6.63082 128.245 6.5893 128.15 6.5152C128.108 6.47891 128.075 6.43339 128.053 6.38221C128.032 6.33102 128.022 6.27554 128.026 6.22009V5.98293C128.029 5.93866 128.022 5.89423 128.005 5.85309C127.989 5.81196 127.963 5.77524 127.93 5.74578C127.831 5.67753 127.714 5.63993 127.595 5.63769L125.123 5.43645H125.041C124.924 5.42703 124.808 5.46306 124.717 5.53707C124.637 5.62596 124.593 5.74116 124.592 5.86062L123.245 22.9895V23.0652C123.241 23.1241 123.248 23.1833 123.266 23.2394C123.284 23.2956 123.314 23.3476 123.352 23.3924C123.451 23.4791 123.578 23.5264 123.708 23.5253L127.673 23.8489H127.751C127.869 23.8574 127.986 23.8187 128.076 23.7412C128.161 23.6416 128.208 23.5136 128.207 23.3817L129.012 13.3572C129.094 12.3253 129.397 11.5381 129.935 11.0094C130.239 10.7329 130.596 10.5204 130.984 10.3845C131.372 10.2486 131.783 10.1921 132.193 10.2183C132.35 10.2183 132.514 10.2183 132.681 10.24L134.173 10.3623H134.245L134.22 10.3765ZM80.9325 23.0471L84.7402 23.2089H84.7757C84.8958 23.2188 85.0152 23.1797 85.1068 23.1012C85.191 23.0016 85.2333 22.8722 85.2244 22.7417L85.6699 12.0199V11.4517C85.6699 9.35893 85.164 7.78773 84.1665 6.71289C83.1692 5.63769 81.6732 5.05529 79.6358 4.96889H79.2795C77.9891 4.94862 76.7233 5.3248 75.6497 6.04765C75.4874 6.18132 75.2891 6.26385 75.0799 6.2848C75.0142 6.28902 74.9484 6.279 74.887 6.25544C74.8256 6.23187 74.77 6.19532 74.7239 6.14827C74.6414 6.04744 74.6006 5.91881 74.6099 5.7888V5.72053C74.6146 5.6729 74.6084 5.62482 74.5917 5.57996C74.575 5.5351 74.5483 5.49465 74.5136 5.46169C74.4197 5.39312 74.3058 5.35772 74.1896 5.36107L71.8136 5.26009H71.771C71.6522 5.25044 71.5344 5.288 71.4431 5.36462C71.4034 5.40685 71.3726 5.45661 71.3524 5.51097C71.3323 5.56532 71.3232 5.62316 71.3258 5.68107L70.6451 22.1483V22.1877C70.6356 22.3093 70.6739 22.4295 70.7521 22.522C70.8512 22.6073 70.9787 22.65 71.1084 22.6411L74.9161 22.8028H74.9552C75.0756 22.8135 75.1954 22.7744 75.2867 22.6948C75.3719 22.5956 75.4153 22.4665 75.4074 22.3353L75.8707 11.6924C75.8842 11.0201 76.1515 10.3779 76.6189 9.89476C76.8536 9.66595 77.1328 9.48791 77.4392 9.37169C77.7456 9.25547 78.0726 9.20357 78.3998 9.2192H78.5707C78.9211 9.20627 79.2696 9.27637 79.5878 9.42379C79.906 9.57122 80.1849 9.7918 80.4017 10.0676C80.7578 10.5779 80.9409 11.1889 80.925 11.8112V11.9801L80.5012 22.5543V22.5941C80.492 22.7161 80.5318 22.8366 80.6117 22.9284C80.7016 23.0048 80.8153 23.0471 80.9325 23.0471ZM28.7063 25.8229L32.3467 25.9307H32.3716C32.4881 25.9413 32.6036 25.9036 32.692 25.8265C32.7695 25.7348 32.8093 25.6164 32.8025 25.4958L33.2548 9.79449V9.76533C33.2597 9.70782 33.2532 9.64989 33.2355 9.59494C33.2178 9.53999 33.1893 9.48913 33.1517 9.44533C33.0618 9.36537 32.944 9.3241 32.8238 9.33049L29.1515 9.2224H29.1266C29.0733 9.21761 29.0196 9.22375 28.9688 9.24044C28.918 9.25713 28.8711 9.28402 28.831 9.31947C28.7593 9.4061 28.7224 9.5164 28.7276 9.6288L28.275 25.3628V25.3877C28.2651 25.5051 28.3024 25.622 28.3784 25.7113C28.4697 25.7895 28.587 25.8293 28.7063 25.8229ZM26.1879 7.2736C26.1953 7.2099 26.19 7.14535 26.1723 7.08371C26.1546 7.02206 26.1249 6.96455 26.0848 6.91449C26.0434 6.87619 25.9944 6.84707 25.9409 6.82906C25.8875 6.81105 25.8308 6.80454 25.7747 6.80996C23.9894 6.80426 22.231 7.24549 20.6596 8.09351C20.5566 8.17458 20.4333 8.22578 20.3033 8.24107C20.1849 8.24841 20.0677 8.21393 19.9722 8.14364C19.9296 8.10705 19.8962 8.06104 19.8746 8.00925C19.8529 7.95746 19.8437 7.90134 19.8475 7.84533V7.71236C19.8518 7.66887 19.8456 7.62499 19.8296 7.58436C19.8135 7.54373 19.788 7.50752 19.7551 7.47876C19.6607 7.41539 19.5476 7.38617 19.4343 7.39591H17.1653C17.102 7.38847 17.0378 7.39386 16.9767 7.41176C16.9155 7.42966 16.8586 7.4597 16.8093 7.50009C16.7713 7.5422 16.7425 7.59177 16.7247 7.64564C16.7069 7.69951 16.7005 7.7565 16.7059 7.81298V23.5541C16.6942 23.6779 16.7329 23.8012 16.8125 23.8955C16.9119 23.979 17.0406 24.0181 17.1688 24.0036H20.8056C20.9342 24.0188 21.0632 23.9801 21.162 23.8958C21.2419 23.8012 21.2803 23.6779 21.2685 23.5545V14.3492C21.2685 13.3244 21.5286 12.5515 22.0558 12.0121C22.583 11.4731 23.3703 11.2284 24.3963 11.2284H25.7676C25.8813 11.238 25.9939 11.2018 26.0809 11.1278C26.1534 11.0389 26.1889 10.9259 26.1804 10.8114L26.1879 7.2736ZM31.2493 1.32658H31.1569C30.8188 1.31884 30.4825 1.37844 30.1675 1.50192C29.8526 1.6254 29.5653 1.8103 29.3224 2.04587C29.0622 2.29119 28.8547 2.58703 28.7126 2.91532C28.5705 3.24361 28.4968 3.59744 28.496 3.9552V4.04871C28.4875 4.38686 28.546 4.72336 28.6683 5.03871C28.7905 5.35406 28.9741 5.642 29.2083 5.88587L29.1444 5.94702L29.2119 5.88587C29.4537 6.14362 29.7456 6.34928 30.0696 6.49026C30.3936 6.63124 30.7429 6.70458 31.0962 6.70578H31.1925C31.5363 6.71314 31.8782 6.65156 32.1979 6.52467C32.5176 6.39779 32.8087 6.20815 33.054 5.96693C33.3008 5.72444 33.4972 5.43548 33.632 5.11671C33.7667 4.79793 33.8371 4.45563 33.8392 4.10951V4.01636C33.8539 3.32938 33.5979 2.66421 33.1265 2.16462C32.8892 1.90176 32.5996 1.69142 32.2764 1.5471C31.9531 1.40279 31.6033 1.32767 31.2493 1.32658ZM39.6595 31.6587C39.7657 31.6704 39.8715 31.6334 39.9479 31.5577C40.0225 31.4645 40.0605 31.3468 40.0545 31.227L40.3398 24.1188C40.3376 23.9708 40.3785 23.8261 40.457 23.7017C40.5369 23.595 40.6638 23.5356 40.7956 23.5435H40.8204C40.8514 23.5477 40.8808 23.5563 40.9096 23.5684L41.0233 23.626C41.7326 24.0141 42.5237 24.2286 43.3318 24.2517H43.8093C45.7931 24.2517 47.3711 23.7266 48.5609 22.6876C49.8434 21.5659 50.5305 19.9836 50.6126 17.9125L50.7977 13.2676V12.9077C50.8288 12.1035 50.6997 11.3012 50.4177 10.5475C50.1358 9.79373 49.7068 9.10373 49.1556 8.51769C47.9765 7.29529 46.3277 6.64107 44.1688 6.55111H43.9052C42.6702 6.54404 41.4659 6.93624 40.4716 7.66933C40.3557 7.75717 40.2145 7.80507 40.0691 7.80587H40.0406C39.9804 7.80714 39.9205 7.79599 39.8647 7.77311C39.8089 7.75024 39.7584 7.71612 39.7163 7.67289C39.6334 7.5724 39.5938 7.44312 39.6062 7.31342V7.26293C39.6101 7.21811 39.6042 7.17297 39.5888 7.1307C39.5733 7.08843 39.5488 7.05006 39.517 7.01831C39.4262 6.95492 39.3175 6.92216 39.2068 6.9248L36.9381 6.83129H36.9026C36.7882 6.82204 36.6752 6.85973 36.5889 6.93582C36.5115 7.02613 36.4717 7.14347 36.4788 7.26293L35.5309 31.0436V31.0759C35.521 31.1918 35.5597 31.307 35.6379 31.3924C35.7381 31.4748 35.8649 31.5172 35.9942 31.5111L39.631 31.6583H39.663L39.6595 31.6587ZM40.6069 17.0788L40.7455 13.5765C40.7455 12.7808 41.019 12.0096 41.5189 11.3941C41.7667 11.1234 42.0719 10.9115 42.412 10.7741C42.7522 10.6366 43.1188 10.5769 43.4849 10.5995H43.6594C44.0443 10.5861 44.427 10.6645 44.7757 10.8283C45.1244 10.9922 45.4292 11.2367 45.6648 11.5417C46.0609 12.135 46.2603 12.8382 46.2347 13.5513V13.7636L46.0961 17.2658C46.1041 18.0629 45.8303 18.8371 45.3231 19.4517C45.071 19.7119 44.7657 19.9144 44.4282 20.0453C44.0906 20.1763 43.7287 20.2326 43.3673 20.2105H43.1858C42.2774 20.1742 41.5971 19.8688 41.1803 19.2825C40.7806 18.6973 40.5796 17.999 40.6069 17.2907V17.0788ZM14.4972 27.0599C14.5903 26.9646 14.6383 26.8334 14.629 26.7001V26.6389L14.38 22.6048C14.3833 22.4505 14.3314 22.3 14.2336 22.1806C14.1864 22.1356 14.1305 22.1008 14.0692 22.0786C14.0079 22.0563 13.9427 22.047 13.8776 22.0512H13.4822C13.0134 22.0787 12.5445 21.9977 12.112 21.8143C11.6795 21.631 11.2951 21.3503 10.9886 20.9941C10.4046 20.2752 10.077 19.2505 9.99498 17.877L9.59246 11.4663V11.3689C9.58475 11.2573 9.59972 11.1452 9.63648 11.0396C9.67324 10.9339 9.73102 10.8368 9.80633 10.7541C9.97532 10.5961 10.1982 10.5086 10.4295 10.5095L13.2076 10.3335C13.371 10.3374 13.5298 10.2766 13.6496 10.1646C13.7534 10.0374 13.8044 9.8751 13.792 9.71129V9.62525L13.5714 6.11236C13.5737 5.9591 13.519 5.81045 13.4179 5.69529C13.3114 5.59822 13.1693 5.54987 13.0261 5.56231H12.955L10.1769 5.73831H10.077C9.9605 5.74488 9.84381 5.72824 9.73374 5.68937C9.62367 5.65049 9.5224 5.59014 9.43579 5.51182C9.27506 5.32907 9.18639 5.09395 9.1864 4.85049L8.90503 0.467556C8.90661 0.424597 8.89956 0.381757 8.88431 0.341571C8.86905 0.301386 8.8459 0.264671 8.81621 0.2336C8.74557 0.177591 8.65626 0.150635 8.56646 0.158223H8.51317L3.50858 0.474667C3.41064 0.472241 3.31491 0.50405 3.23787 0.564623C3.20961 0.594717 3.18804 0.630457 3.17457 0.669493C3.1611 0.70853 3.15603 0.749977 3.15971 0.791111V0.826667L3.43007 5.20285V5.31058C3.44449 5.54355 3.36793 5.77301 3.21655 5.95058C3.04831 6.11307 2.82332 6.20339 2.58951 6.20231L0.712305 6.32107C0.559541 6.31929 0.411397 6.3744 0.295581 6.47538C0.202431 6.58522 0.156457 6.72748 0.167686 6.87111V6.94293L0.391502 10.5383C0.38866 10.6926 0.444791 10.8423 0.548528 10.9554C0.667541 11.0507 0.817462 11.098 0.968805 11.0887H1.04696L2.84957 10.9842H2.95615C3.18778 10.97 3.41515 11.0475 3.59065 11.2C3.75132 11.3714 3.84042 11.5978 3.83969 11.8329L4.28874 19.0958C4.47383 22.0512 5.43198 24.1724 7.16317 25.4923C8.69258 26.6571 10.6611 27.2409 13.0691 27.243C13.3931 27.243 13.7316 27.243 14.0734 27.211C14.2283 27.2146 14.3789 27.1605 14.4972 27.0599Z" fill="#02C69E"/>
</g>
<defs>
<clipPath id="clip0_1_8">
<rect width="135" height="32" fill="white"/>
</clipPath>
</defs>
</svg>
